<svg xmlns="http://www.w3.org/2000/svg" xmlns:xlink="http://www.w3.org/1999/xlink" viewBox="0 0 111.93962264150943 154.5" height="154.5" width="111.93962264150943" data-background-color="#21232b" preserveAspectRatio="xMidYMid meet" id="tight-bounds"><g><svg viewBox="0 0 111.93962264150943 154.5" height="154.5" width="111.93962264150943"><g><svg viewBox="0 0 111.93962264150943 154.5" height="154.5" width="111.93962264150943"><g id="textblocktransform"><svg viewBox="0 0 111.93962264150943 154.5" height="154.5" width="111.93962264150943" id="textblock"><g><svg viewBox="0 0 111.93962264150943 154.5" height="154.5" width="111.93962264150943"><g transform="matrix(1,0,0,1,0,0)"><svg width="111.93962264150943" viewBox="3.049999952316284 -38.95000076293945 28.80000114440918 39.75" height="154.5" data-palette-color="#f4f3f0"><path d="M10.1 0.8Q8.7 0.8 7.15-0.3 5.6-1.4 4.95-2.8L4.95-2.8Q4.35-4.1 3.73-11.05 3.1-18 3.1-21.4L3.1-21.4 3.1-24.05Q3.05-25.2 3.05-26.6L3.05-26.6Q3.05-29.2 3.35-31.75L3.35-31.75Q3.55-33 3.88-33.9 4.2-34.8 4.8-35.65L4.8-35.65Q5.9-37.35 8.1-37.9L8.1-37.9Q9.25-38.2 10.65-38.2L10.65-38.2Q11.6-38.2 12.58-37.65 13.55-37.1 13.55-36.35L13.55-36.35Q13.55-35.8 12.75-35.8L12.75-35.8Q12.45-35.8 11.6-36.15L11.6-36.15Q10.85-36.5 10.25-36.5L10.25-36.5Q8.85-36.5 7.73-35.93 6.6-35.35 5.95-34.4L5.95-34.4Q5.4-33.6 5-32.2 4.6-30.8 4.5-29.4L4.5-29.4Q4.35-28.15 4.35-26.4L4.35-26.4 4.4-23.6Q4.45-22.4 4.45-21L4.45-21Q4.45-17.55 5.15-10.85 5.85-4.15 6.5-3.1L6.5-3.1Q7.1-2.15 8.28-1.65 9.45-1.15 10.75-1.15L10.75-1.15Q13.05-1.15 14.25-2.6L14.25-2.6Q14.7-3.2 15.2-3.2L15.2-3.2Q15.65-3.2 15.65-2.5L15.65-2.5Q15.65-1.6 15.1-0.93 14.55-0.25 13.6 0.1L13.6 0.1Q12 0.8 10.1 0.8L10.1 0.8ZM30.1 0.55Q29.75 0.55 29.45 0.2 29.15-0.15 29.05-0.6L29.05-0.6 28.9-1.55Q28.75-2.15 28.75-2.3L28.75-2.3Q23.15-22.35 22.6-24.8L22.6-24.8Q22.15-26.6 20.55-34.8L20.55-34.8Q20.5-34.5 20.5-32.75L20.5-32.75 20.5-14.65 20.6-7.5 20.7-0.4 20.4 0 19.25 0 19.1-0.4Q19.2-0.9 19.2-2.4L19.2-2.4 19.15-11.1 19.05-19.8 19.05-26.35 19.05-31.1Q19-33.2 19-35.8L19-35.8Q19-36.1 18.95-36.35L18.95-36.35 18.95-36.85Q18.95-37.45 19.27-37.68 19.6-37.9 20.3-37.9L20.3-37.9Q20.6-37.9 20.97-37.6 21.35-37.3 21.45-36.95L21.45-36.95 22.5-32.05Q23.2-28.55 23.7-26.75L23.7-26.75Q24.75-22.6 27.3-13.15L27.3-13.15Q28.75-6.95 29.9-3.65L29.9-3.65Q30.2-4.4 30.2-6.05L30.2-6.05Q30.2-10.9 30.3-14.75L30.3-14.75 30.4-23.45Q30.4-25.6 30.45-27.35L30.45-27.35 30.45-31.2 30.4-38.25Q30.65-38.95 31.45-38.95L31.45-38.95Q31.85-38.95 31.85-37.5L31.85-37.5Q31.85-36.85 31.8-36.45L31.8-36.45Q31.8-36.05 31.77-35.88 31.75-35.7 31.75-35.65L31.75-35.65 31.75-32.45Q31.75-25.8 31.7-20.6L31.7-20.6Q31.65-15.35 31.65-8.8L31.65-8.8Q31.65-7.55 31.5-4.85L31.5-4.85 31.4-0.9Q31.4 0.55 30.1 0.55L30.1 0.55Z" opacity="1" transform="matrix(1,0,0,1,0,0)" fill="#f4f3f0" class="wordmark-text-0" data-fill-palette-color="primary" id="text-0"/></svg></g></svg></g></svg></g></svg></g><g/></svg></g><defs/></svg>