<?xml version="1.0" encoding="UTF-8"?>
<svg id="TYPO" xmlns="http://www.w3.org/2000/svg" viewBox="0 0 400 180">
  <defs>
    <style>
      .cls-1 {
        fill: #ebc4b4;
        font-family: FuturaPT-Light, 'Futura PT';
        font-size: 22.15px;
        font-weight: 300;
      }

      .cls-2 {
        fill: #fff;
        stroke-width: 0px;
      }
    </style>
  </defs>
  <text class="cls-1" transform="translate(104.26 150.67)"><tspan x="0" y="0"> </tspan></text>
  <g>
    <path class="cls-2" d="m260.61,126.32h-71.11s-.03,0-.04,0h-87.64s-.03,0-.04,0H30.69c-.06,0-.15,0-.22-.02h0s0,0,0,0c-.12-.02-.23-.07-.33-.14-.12-.08-.22-.17-.29-.29-.08-.12-.14-.27-.16-.43-.01-.11-.01-.21,0-.32.02-.08.04-.16.08-.24l17.76-39.92s.02-.04.02-.05l17.76-39.92c.04-.08.08-.16.14-.23,0,0,0,0,0,0,.04-.04.07-.08.11-.12h0s0,0,0,0h0c.17-.15.39-.24.64-.25h34.62c.52-8.15,7.31-14.62,15.58-14.62,6.67,0,12.38,4.21,14.61,10.11,2.23-5.9,7.94-10.11,14.61-10.11s12.38,4.21,14.61,10.11c2.23-5.9,7.94-10.11,14.61-10.11,8.27,0,15.06,6.47,15.58,14.62h125.19c-1.78-1.52-2.91-3.79-2.91-6.31,0-4.58,3.73-8.31,8.31-8.31s8.31,3.73,8.31,8.31c0,2.52-1.13,4.78-2.91,6.31h23.37c.55,0,1,.45,1,1s-.45,1-1,1c-10.47,0-18.98,8.52-18.98,18.98s8.52,18.98,18.98,18.98c11.57,0,20.98,9.41,20.98,20.98s-9.41,20.98-20.98,20.98h-39.89s0,0-.01,0h-49.3Zm69.21-2h19.98c10.47,0,18.98-8.52,18.98-18.98s-8.52-18.98-18.98-18.98c-11.57,0-20.98-9.41-20.98-20.98,0-8.38,4.93-15.62,12.05-18.98h-18.83v77.93h7.79Zm-19.43,0h9.64V46.39h-24.84c9.23,3.89,15.72,13.03,15.72,23.65,0,13.46-10.42,24.54-23.63,25.57l23.11,28.71Zm-48.78,0h46.21l-23.34-29c-.24-.3-.29-.71-.12-1.06.17-.35.52-.57.9-.57,13.04,0,23.65-10.61,23.65-23.65s-10.61-23.65-23.65-23.65h-23.65v77.93Zm-70.59,0h68.05l-16.89-37.97h-34.27l-16.89,37.97Zm-29.77,0h27.23V45.39c0-7.51-6.11-13.61-13.61-13.61s-13.61,6.11-13.61,13.61v78.93Zm-29.23,0h27.23V45.39c0-7.51-6.11-13.61-13.61-13.61s-13.61,6.11-13.61,13.61v78.93Zm-29.23,0h27.23V45.39c0-7.51-6.11-13.61-13.61-13.61s-13.61,6.11-13.61,13.61h0v78.93Zm-70.59,0h68.05l-16.89-37.97h-34.27l-16.89,37.97Zm158.27-37.97v34.26l15.24-34.26h-15.24Zm-104.92,0l15.24,34.26v-34.26h-15.24Zm158.81,0l15.24,34.26v-34.26h-15.24Zm-.89-2h16.13v-37.96h-33.03l16.89,37.96Zm-34.67,0h32.49l-16.24-36.5-16.24,36.5Zm-18.32,0h16.13l16.89-37.96h-33.03v37.96Zm-105.82,0h16.13v-37.96h-33.03l16.89,37.96Zm-34.67,0h32.49l-16.24-36.5-16.24,36.5ZM321.04,31.77c-3.48,0-6.31,2.83-6.31,6.31s2.83,6.31,6.31,6.31,6.31-2.83,6.31-6.31-2.83-6.31-6.31-6.31Z"/>
    <g>
      <g>
        <path class="cls-2" d="m117.6,143.42c-.53-.53-1.33-1.15-2.18-1.55-.88-.4-1.9-.65-2.88-.65-3.86,0-6.71,3.1-6.71,6.96,0,4.53,3.68,6.81,6.74,6.81,1.13,0,2.23-.33,3.1-.78.95-.48,1.63-1.1,1.93-1.4v2.3c-1.85,1.33-3.78,1.63-5.03,1.63-4.96,0-8.64-3.76-8.64-8.59s3.73-8.69,8.74-8.69c1,0,2.93.12,4.93,1.65v2.3Z"/>
        <path class="cls-2" d="m124.82,148.1c0-4.98,3.88-8.64,8.69-8.64s8.69,3.66,8.69,8.64-3.86,8.64-8.69,8.64-8.69-3.68-8.69-8.64Zm1.9,0c0,3.83,3.03,6.89,6.79,6.89s6.79-3.05,6.79-6.89-3.03-6.89-6.79-6.89-6.79,3.05-6.79,6.89Z"/>
        <path class="cls-2" d="m150.86,156.44v-17.4l13.02,13.65v-12.95h1.85v17.45l-13.02-13.65v12.9h-1.85Z"/>
        <path class="cls-2" d="m182.76,143.04c-.23-.45-.6-.95-.98-1.25-.33-.25-.93-.58-1.88-.58-1.65,0-2.8,1.03-2.8,2.58,0,.65.18,1.03.63,1.45.5.5,1.13.78,1.75,1.05l1.6.7c.98.43,1.88.88,2.58,1.58.85.85,1.2,1.83,1.2,3.03,0,3.08-2.28,5.13-5.28,5.13-1.1,0-2.48-.23-3.63-1.35-.83-.8-1.33-1.95-1.55-2.96l1.8-.5c.12.88.53,1.63,1,2.13.73.73,1.55.93,2.4.93,2.28,0,3.36-1.63,3.36-3.31,0-.75-.23-1.4-.83-1.95-.48-.45-1.13-.75-2-1.15l-1.5-.7c-.65-.3-1.48-.65-2.23-1.38-.73-.7-1.15-1.48-1.15-2.73,0-2.58,1.98-4.31,4.68-4.31,1.03,0,1.85.2,2.68.75.68.45,1.25,1.13,1.63,1.85l-1.48.98Z"/>
        <path class="cls-2" d="m195.38,149.98c0,1.4,0,2.93,1.33,4.06.68.58,1.83.95,2.75.95s2.08-.38,2.75-.95c1.33-1.13,1.33-2.65,1.33-4.06v-10.24h1.85v10.74c0,1.4-.15,2.75-1.05,4.01-1,1.38-2.75,2.25-4.88,2.25s-3.88-.88-4.88-2.25c-.9-1.25-1.05-2.6-1.05-4.01v-10.74h1.85v10.24Z"/>
        <path class="cls-2" d="m216.82,139.73v14.95h4.61v1.75h-6.46v-16.7h1.85Z"/>
        <path class="cls-2" d="m232.77,141.49v14.95h-1.85v-14.95h-4.06v-1.75h9.97v1.75h-4.06Z"/>
        <path class="cls-2" d="m246.44,139.73v16.7h-1.85v-16.7h1.85Z"/>
        <path class="cls-2" d="m255.98,156.44v-17.4l13.02,13.65v-12.95h1.85v17.45l-13.02-13.65v12.9h-1.85Z"/>
        <path class="cls-2" d="m289.04,148.05h6.96v.4c0,1.85-.55,3.86-1.6,5.28-.5.68-2.38,3-6.21,3-4.96,0-8.66-3.78-8.66-8.64s3.73-8.64,8.71-8.64c1.6,0,3.48.4,5.11,1.65.75.58,1.45,1.33,1.93,1.98l-1.38,1.25c-.48-.68-1.03-1.28-1.58-1.73-.8-.65-2.05-1.4-4.06-1.4-4.03,0-6.84,3.03-6.84,6.91,0,4.56,3.63,6.86,6.79,6.86,2.23,0,4.16-1.13,5.11-2.8.3-.53.63-1.33.68-2.38h-4.96v-1.75Z"/>
      </g>
      <path class="cls-2" d="m315.53,150.63c.98,0,1.78-.79,1.78-1.78s-.79-1.77-1.78-1.77-1.78.79-1.78,1.77.79,1.78,1.78,1.78"/>
      <path class="cls-2" d="m84.93,150.63c.98,0,1.78-.79,1.78-1.78s-.79-1.77-1.78-1.77-1.78.79-1.78,1.77.79,1.78,1.78,1.78"/>
    </g>
  </g>
</svg>