<svg version="1.1" id="Layer_1" xmlns="http://www.w3.org/2000/svg" xmlns:xlink="http://www.w3.org/1999/xlink" x="0px" y="0px"
	 width="100%" viewBox="0 0 1200 1200" enable-background="new 0 0 1200 1200" xml:space="preserve">
<path fill="#000000" opacity="1.000000" stroke="none" 
	d="
M1119.000000,1201.000000 
	C746.000000,1201.000000 373.500000,1201.000000 1.000000,1201.000000 
	C1.000000,801.000000 1.000000,401.000000 1.000000,1.000000 
	C401.000000,1.000000 801.000000,1.000000 1201.000000,1.000000 
	C1201.000000,401.000000 1201.000000,801.000000 1201.000000,1201.000000 
	C1173.833374,1201.000000 1146.666626,1201.000000 1119.000000,1201.000000 
M352.579102,646.892700 
	C354.404572,650.351440 356.136688,653.864868 358.108826,657.237854 
	C358.754913,658.343018 360.002289,659.840942 361.012329,659.870483 
	C368.597076,660.091980 376.191223,659.991089 384.238556,659.991089 
	C384.238556,623.263916 384.238556,587.204529 384.238556,551.173584 
	C392.722931,550.774109 392.722931,550.774109 392.531860,547.251465 
	C384.778992,547.251465 377.020264,547.251465 368.916321,547.251465 
	C369.542389,554.092834 375.596283,549.039612 377.651764,551.531738 
	C377.651764,575.213867 377.651764,598.686584 377.651764,623.347656 
	C363.912170,597.163025 350.738129,572.056152 337.710632,547.228638 
	C321.928528,547.228638 306.642853,547.228638 291.133698,547.228638 
	C291.133698,548.408264 290.981476,550.178284 291.156403,550.211243 
	C293.986603,550.744324 296.858337,551.056641 299.673157,551.413025 
	C299.673157,586.336731 299.673157,621.059692 299.673157,655.758850 
	C290.986176,656.335449 290.986176,656.335449 291.782654,659.768799 
	C299.417206,659.768799 307.035004,659.768799 314.865173,659.768799 
	C314.865173,658.578552 315.015411,656.811523 314.842773,656.779358 
	C312.009918,656.252197 309.136322,655.943787 306.262207,655.584961 
	C306.262207,623.875000 306.262207,592.370300 306.262207,559.495178 
	C321.978271,589.204346 337.070587,617.734436 352.579102,646.892700 
M220.774445,660.994446 
	C231.952164,660.997253 243.144669,661.350098 254.302307,660.878174 
	C261.585236,660.570068 268.650269,655.836487 276.181305,659.848389 
	C276.269958,659.895569 276.616180,659.459229 277.417175,658.712585 
	C277.417175,647.225220 277.417175,635.215027 277.417175,623.204834 
	C277.067108,622.877441 276.717041,622.550110 276.366974,622.222717 
	C274.931213,623.752686 273.158356,625.084595 272.121185,626.848877 
	C268.652222,632.750122 265.914246,639.132507 262.017334,644.717285 
	C257.490021,651.205627 252.081055,657.295105 243.347321,657.945007 
	C233.041061,658.712097 225.207626,652.116211 220.932404,640.388428 
	C216.562149,628.400024 217.080734,615.848511 216.120132,603.483154 
	C215.728683,598.444214 216.378540,593.262634 217.066086,588.215698 
	C218.162445,580.167542 219.018021,571.988708 221.215698,564.215759 
	C223.459808,556.278564 228.901398,550.386597 237.578690,549.095032 
	C246.395630,547.782715 253.347107,551.755310 258.327515,558.697937 
	C263.539337,565.963135 268.133606,573.671265 273.414001,581.828735 
	C273.704407,581.828735 275.150116,581.828735 276.210754,581.828735 
	C276.210754,570.159607 276.210754,558.654480 276.210754,548.080261 
	C271.366364,548.080261 267.136566,548.877686 263.338440,547.935242 
	C250.363495,544.715820 237.351990,543.752380 224.200485,546.026855 
	C205.253235,549.303528 192.770966,560.529724 186.059708,578.267700 
	C180.664932,592.526062 180.742294,607.404968 183.267410,622.065674 
	C184.921204,631.667542 189.088547,640.495544 196.180450,647.903503 
	C202.859222,654.879822 211.266159,657.958496 220.774445,660.994446 
M829.963135,548.953308 
	C830.658386,539.144531 826.470825,537.439148 821.689209,537.143677 
	C813.430908,536.633362 805.118347,537.002197 796.444214,537.002197 
	C799.750610,539.674011 800.104736,572.102661 797.259155,574.838440 
	C802.871338,574.838440 808.498779,574.838440 812.719666,574.838440 
	C809.142212,569.094116 811.851929,562.443787 811.904297,555.844055 
	C813.844238,557.174744 815.432007,558.811890 815.868164,560.713257 
	C816.411804,563.083801 815.789062,565.695190 816.051758,568.161926 
	C816.769775,574.903809 818.693298,575.947388 827.369751,576.076843 
	C833.187073,576.163696 833.113831,572.203552 832.904602,567.731323 
	C831.762512,568.975037 830.620422,570.218750 829.276672,571.682007 
	C828.168030,565.822693 831.316956,558.622437 824.573669,556.013062 
	C826.267944,553.956116 828.003906,551.848572 829.963135,548.953308 
M743.987732,655.519836 
	C749.277039,650.791260 749.024719,644.473022 749.010986,638.193176 
	C748.977112,622.745483 734.800049,614.396423 721.096924,621.480896 
	C710.304993,627.060242 709.865662,646.560059 715.255371,653.764648 
	C721.149109,661.643188 735.243164,662.786804 743.987732,655.519836 
M636.670471,620.999023 
	C634.403870,620.999023 632.137268,620.999023 629.413696,620.999023 
	C633.018311,623.937134 633.022827,656.139587 629.818542,658.772827 
	C636.617554,658.772827 643.352112,658.772827 650.086670,658.772827 
	C650.094788,658.581543 650.102844,658.390198 650.110962,658.198914 
	C648.208069,658.079041 646.305115,657.959167 644.255737,657.830078 
	C644.255737,652.866150 644.255737,648.123474 644.255737,642.997070 
	C646.965149,642.997070 649.439941,643.174255 651.881592,642.964478 
	C659.718994,642.291077 662.429199,638.537537 661.999817,629.218140 
	C661.772644,624.287476 657.525513,621.060974 651.107483,621.006470 
	C646.613159,620.968323 642.118225,620.999084 636.670471,620.999023 
M553.588745,575.000977 
	C560.887573,575.000977 568.186462,575.000977 575.855835,575.000977 
	C576.347168,570.912842 576.804077,567.110596 577.260986,563.308350 
	C576.903015,563.062683 576.545044,562.817017 576.187073,562.571289 
	C571.153076,566.300842 569.105164,575.124573 560.374023,572.654846 
	C560.374023,567.499573 560.374023,562.330139 560.374023,557.160645 
	C560.810669,556.895508 561.247375,556.630310 561.684021,556.365112 
	C564.154236,559.004822 566.624451,561.644592 569.740662,564.974609 
	C569.740662,558.114929 569.740662,552.695129 569.740662,546.312866 
	C566.555908,549.752808 563.893433,552.628601 561.231018,555.504395 
	C560.897156,555.208984 560.563354,554.913513 560.229492,554.618042 
	C560.229492,549.515137 560.229492,544.412231 560.229492,539.428894 
	C568.227905,536.943909 570.344482,544.011536 574.648315,549.326843 
	C574.648315,544.207153 574.648315,540.710693 574.648315,537.347168 
	C564.607239,537.347168 554.922607,537.347168 546.062134,537.347168 
	C546.747314,539.660706 547.857178,541.763855 547.914612,543.895264 
	C548.129761,551.875977 548.134583,559.869690 547.916504,567.850220 
	C547.853699,570.146240 546.776062,572.414490 546.081787,575.000977 
	C547.717896,575.000977 550.170776,575.000977 553.588745,575.000977 
M485.490906,638.988647 
	C484.674225,637.394836 483.845764,635.806946 483.042633,634.206299 
	C476.146881,620.462891 476.148254,620.461731 461.489075,621.056946 
	C461.331329,621.063416 461.177582,621.167908 461.022003,621.226685 
	C463.947968,623.776489 463.937714,656.318542 460.967499,658.752258 
	C463.393921,658.752258 465.771301,658.752258 467.037720,658.752258 
	C464.725342,649.097107 466.664581,639.408813 466.419861,629.766541 
	C470.920837,637.283508 474.897491,644.906433 478.906830,652.512207 
	C482.818512,659.932678 483.622131,660.277832 491.999878,658.227295 
	C491.999878,647.481995 491.945831,636.684204 492.059845,625.888123 
	C492.076416,624.320984 492.897644,622.762268 493.342682,621.213074 
	C491.636841,621.213074 489.207245,621.213074 486.493378,621.213074 
	C489.277191,623.293152 490.075714,634.152222 488.377594,644.571411 
	C487.457367,642.699341 486.695801,641.150146 485.490906,638.988647 
M911.840088,631.955627 
	C912.226807,630.014343 912.680237,628.083496 912.986084,626.129578 
	C913.587769,622.285095 912.118896,620.680359 908.024597,620.922791 
	C902.710205,621.237488 897.362976,620.999634 892.029907,620.999634 
	C889.056885,620.999634 886.083862,620.999634 883.985535,620.999634 
	C884.836121,623.612854 885.880493,625.390381 885.920532,627.190125 
	C886.101929,635.352417 886.122131,643.523926 885.921204,651.685303 
	C885.865234,653.957703 884.853577,656.206482 884.229858,658.665222 
	C893.383423,658.665222 903.545105,658.665222 913.697998,658.665222 
	C913.697998,654.676819 913.697998,650.962402 913.697998,645.746521 
	C908.980713,651.319702 906.724731,658.884705 898.233398,656.599915 
	C898.233398,651.433411 898.233398,646.347290 898.233398,641.261108 
	C898.625488,640.968506 899.017517,640.675842 899.409607,640.383240 
	C901.752808,642.919495 904.096069,645.455750 906.537720,648.098572 
	C906.537720,642.104980 906.537720,636.615234 906.537720,630.836121 
	C903.994507,633.975098 901.738037,636.760254 899.481506,639.545410 
	C899.106628,639.258301 898.731689,638.971191 898.356812,638.684082 
	C898.356812,633.498291 898.356812,628.312500 898.356812,623.310425 
	C903.563599,621.986755 906.534668,624.411133 908.743164,628.361938 
	C909.432129,629.594421 910.251831,630.753784 911.840088,631.955627 
M969.998962,634.173584 
	C970.663208,639.336487 972.927917,642.936340 978.459045,644.232788 
	C981.726807,644.998718 985.089172,646.258179 987.801941,648.161133 
	C989.447266,649.315247 991.019287,652.367737 990.622864,654.112793 
	C990.257141,655.722961 987.236511,657.713745 985.356140,657.744324 
	C983.067444,657.781555 980.322998,656.415955 978.539185,654.809448 
	C975.653992,652.210938 973.391541,648.921021 970.347778,645.307739 
	C970.347778,650.839966 970.347778,655.343872 970.347778,660.001160 
	C976.047424,660.001160 981.398621,660.072754 986.747070,659.982178 
	C992.754883,659.880493 997.189026,656.008728 997.985535,650.352478 
	C999.174927,641.906250 996.940674,637.192261 990.617310,635.022827 
	C987.406494,633.921265 984.030762,633.227295 980.941162,631.868103 
	C978.262756,630.690063 975.837219,628.300659 977.257202,625.281738 
	C978.023376,623.653015 980.952698,622.267944 982.979675,622.160522 
	C987.805359,621.904724 989.592285,626.258606 992.107239,629.392334 
	C992.958191,630.452698 993.996033,631.363098 995.634033,633.046387 
	C995.634033,628.197815 995.634033,624.660095 995.634033,621.453613 
	C993.298401,620.987305 991.393433,620.484619 989.455872,620.240356 
	C978.514648,618.860962 969.297424,620.403748 969.998962,634.173584 
M632.039429,550.975647 
	C633.527710,556.628967 637.576721,559.452209 642.884521,561.077087 
	C645.511475,561.881287 648.538940,562.567322 650.392578,564.343018 
	C651.970337,565.854492 652.764709,568.890076 652.623596,571.172119 
	C652.559326,572.212646 649.483582,573.638550 647.638062,573.888672 
	C642.374878,574.602173 639.846008,570.463867 637.036743,567.067871 
	C635.630554,565.367920 634.396179,563.525879 633.084045,561.748047 
	C632.722107,561.958740 632.360107,562.169373 631.998169,562.380005 
	C631.998169,564.682678 631.998169,566.985413 631.998169,569.288086 
	C631.998169,571.498596 631.998169,573.709106 631.998169,575.215942 
	C635.382263,575.520874 637.889404,576.077515 640.342896,575.898438 
	C645.338440,575.533691 650.782227,575.838684 655.153137,573.882935 
	C659.793701,571.806519 661.525818,566.481628 660.906128,561.215820 
	C660.197327,555.193909 656.256042,551.805054 650.686646,550.020996 
	C647.756653,549.082458 644.714722,548.318481 641.995117,546.939636 
	C638.065857,544.947510 637.906006,541.884766 641.229614,539.157349 
	C644.245056,536.682800 649.181335,538.062378 652.137451,542.168335 
	C653.644104,544.260864 655.212891,546.308716 656.753601,548.376770 
	C657.090027,548.124756 657.426514,547.872742 657.763000,547.620728 
	C657.763000,544.204590 657.763000,540.788513 657.763000,537.514771 
	C655.294739,536.989136 653.104797,536.287170 650.869812,536.086792 
	C640.195618,535.129822 631.563660,536.729736 632.039429,550.975647 
M484.473297,539.993530 
	C486.837799,543.196655 489.202271,546.399719 491.566772,549.602844 
	C492.021545,549.334229 492.476349,549.065613 492.931152,548.796997 
	C492.505096,544.983032 492.079071,541.169067 491.623169,537.087463 
	C481.303589,536.252014 470.116974,532.255249 463.098999,543.687927 
	C458.180420,551.700500 457.850311,561.175476 462.924835,568.900696 
	C470.380249,580.250610 482.147675,575.463989 493.001984,574.802490 
	C493.001984,571.363098 493.020325,568.231750 492.990997,565.100952 
	C492.982056,564.144287 492.842285,563.188843 492.639252,560.757751 
	C491.236450,562.511230 490.528015,563.266113 489.970032,564.119324 
	C488.460388,566.427856 487.153809,568.881165 485.516266,571.091553 
	C481.401825,576.645203 475.921722,574.862366 474.008331,568.741699 
	C471.404755,560.413147 471.384644,552.045776 473.790344,543.723938 
	C475.585876,537.512878 478.848450,536.265137 484.473297,539.993530 
M549.945190,644.390503 
	C547.894409,649.328125 545.843628,654.265747 543.960815,658.798950 
	C545.750244,658.798950 548.474915,658.798950 551.199585,658.798950 
	C551.234497,658.638062 551.269409,658.477234 551.304321,658.316345 
	C550.295410,658.094360 549.286560,657.872437 548.243774,657.643005 
	C553.007446,646.543335 553.007446,646.543335 561.543762,647.298584 
	C565.057617,657.039978 565.057617,657.039978 563.145691,658.781006 
	C568.716431,658.781006 574.412537,658.781006 579.437134,658.781006 
	C578.659058,657.350891 577.632263,655.885315 577.017273,654.263550 
	C573.450806,644.858582 569.621033,635.529236 566.630676,625.940247 
	C565.131531,621.132996 562.715027,620.153442 558.554504,621.309204 
	C555.711304,628.778809 552.889771,636.191528 549.945190,644.390503 
M735.437683,541.932068 
	C734.856628,536.710876 731.611938,536.184448 727.652039,537.286499 
	C722.734192,550.081604 717.879272,562.712830 713.189758,574.913696 
	C714.607300,574.913696 717.420227,574.913696 720.233154,574.913696 
	C720.280334,574.744446 720.327515,574.575195 720.374634,574.405945 
	C719.358948,574.139954 718.343201,573.873962 717.302917,573.601562 
	C721.963989,562.260559 721.963989,562.260559 731.050293,563.447021 
	C730.297791,567.287537 735.987732,570.572754 732.068054,574.898804 
	C737.625793,574.898804 743.385254,574.898804 747.835876,574.898804 
	C743.953857,564.364075 739.940186,553.472168 735.437683,541.932068 
M815.330933,656.972290 
	C814.887512,654.581848 814.102844,652.197205 814.061646,649.799866 
	C813.908691,640.907288 814.000732,632.010498 814.000732,623.288025 
	C816.530945,622.973083 818.250854,622.759033 819.970825,622.544983 
	C819.906799,622.197021 819.842834,621.848999 819.778809,621.500977 
	C812.920593,621.500977 806.062317,621.500977 800.185913,621.500977 
	C800.853149,623.599121 801.882263,625.393250 801.922302,627.209106 
	C802.102051,635.362976 802.122803,643.526001 801.922363,651.678894 
	C801.866028,653.970459 800.861938,656.238647 800.173767,658.992981 
	C808.474670,658.992981 817.709534,659.093628 826.935486,658.852417 
	C827.968811,658.825378 829.669189,656.951599 829.819397,655.775818 
	C830.224060,652.607300 829.957703,649.353210 829.957703,646.133057 
	C829.491028,645.966614 829.024292,645.800171 828.557617,645.633789 
	C827.550110,647.079956 826.484680,648.489685 825.546692,649.979614 
	C823.317078,653.521301 821.034302,656.950073 815.330933,656.972290 
M417.999695,648.497681 
	C417.999695,653.949158 417.999695,659.400635 417.999695,664.852112 
	C418.669525,664.975098 419.339355,665.098145 420.009186,665.221130 
	C420.339447,663.603943 420.955872,661.987183 420.958069,660.369629 
	C421.011597,620.752258 421.002167,581.134888 420.990997,541.517456 
	C420.990601,540.060913 420.858826,538.604370 420.788269,537.147827 
	C420.185730,537.040344 419.583191,536.932800 418.980652,536.825317 
	C418.653687,538.426941 418.043762,540.028076 418.041290,541.630127 
	C417.986847,576.919495 417.999695,612.208984 417.999695,648.497681 
z"/>
<path fill="#AAA8A6" opacity="1.000000" stroke="none" 
	d="
M352.371033,646.578613 
	C337.070587,617.734436 321.978271,589.204346 306.262207,559.495178 
	C306.262207,592.370300 306.262207,623.875000 306.262207,655.584961 
	C309.136322,655.943787 312.009918,656.252197 314.842773,656.779358 
	C315.015411,656.811523 314.865173,658.578552 314.865173,659.768799 
	C307.035004,659.768799 299.417206,659.768799 291.782654,659.768799 
	C290.986176,656.335449 290.986176,656.335449 299.673157,655.758850 
	C299.673157,621.059692 299.673157,586.336731 299.673157,551.413025 
	C296.858337,551.056641 293.986603,550.744324 291.156403,550.211243 
	C290.981476,550.178284 291.133698,548.408264 291.133698,547.228638 
	C306.642853,547.228638 321.928528,547.228638 337.710632,547.228638 
	C350.738129,572.056152 363.912170,597.163025 377.651764,623.347656 
	C377.651764,598.686584 377.651764,575.213867 377.651764,551.531738 
	C375.596283,549.039612 369.542389,554.092834 368.916321,547.251465 
	C377.020264,547.251465 384.778992,547.251465 392.531860,547.251465 
	C392.722931,550.774109 392.722931,550.774109 384.238556,551.173584 
	C384.238556,587.204529 384.238556,623.263916 384.238556,659.991089 
	C376.191223,659.991089 368.597076,660.091980 361.012329,659.870483 
	C360.002289,659.840942 358.754913,658.343018 358.108826,657.237854 
	C356.136688,653.864868 354.404572,650.351440 352.371033,646.578613 
z"/>
<path fill="#AAA8A6" opacity="1.000000" stroke="none" 
	d="
M220.344849,660.973389 
	C211.266159,657.958496 202.859222,654.879822 196.180450,647.903503 
	C189.088547,640.495544 184.921204,631.667542 183.267410,622.065674 
	C180.742294,607.404968 180.664932,592.526062 186.059708,578.267700 
	C192.770966,560.529724 205.253235,549.303528 224.200485,546.026855 
	C237.351990,543.752380 250.363495,544.715820 263.338440,547.935242 
	C267.136566,548.877686 271.366364,548.080261 276.210754,548.080261 
	C276.210754,558.654480 276.210754,570.159607 276.210754,581.828735 
	C275.150116,581.828735 273.704407,581.828735 273.414001,581.828735 
	C268.133606,573.671265 263.539337,565.963135 258.327515,558.697937 
	C253.347107,551.755310 246.395630,547.782715 237.578690,549.095032 
	C228.901398,550.386597 223.459808,556.278564 221.215698,564.215759 
	C219.018021,571.988708 218.162445,580.167542 217.066086,588.215698 
	C216.378540,593.262634 215.728683,598.444214 216.120132,603.483154 
	C217.080734,615.848511 216.562149,628.400024 220.932404,640.388428 
	C225.207626,652.116211 233.041061,658.712097 243.347321,657.945007 
	C252.081055,657.295105 257.490021,651.205627 262.017334,644.717285 
	C265.914246,639.132507 268.652222,632.750122 272.121185,626.848877 
	C273.158356,625.084595 274.931213,623.752686 276.366974,622.222717 
	C276.717041,622.550110 277.067108,622.877441 277.417175,623.204834 
	C277.417175,635.215027 277.417175,647.225220 277.417175,658.712585 
	C276.616180,659.459229 276.269958,659.895569 276.181305,659.848389 
	C268.650269,655.836487 261.585236,660.570068 254.302307,660.878174 
	C243.144669,661.350098 231.952164,660.997253 220.344849,660.973389 
z"/>
<path fill="#AAA8A6" opacity="1.000000" stroke="none" 
	d="
M829.851501,549.347168 
	C828.003906,551.848572 826.267944,553.956116 824.573669,556.013062 
	C831.316956,558.622437 828.168030,565.822693 829.276672,571.682007 
	C830.620422,570.218750 831.762512,568.975037 832.904602,567.731323 
	C833.113831,572.203552 833.187073,576.163696 827.369751,576.076843 
	C818.693298,575.947388 816.769775,574.903809 816.051758,568.161926 
	C815.789062,565.695190 816.411804,563.083801 815.868164,560.713257 
	C815.432007,558.811890 813.844238,557.174744 811.904297,555.844055 
	C811.851929,562.443787 809.142212,569.094116 812.719666,574.838440 
	C808.498779,574.838440 802.871338,574.838440 797.259155,574.838440 
	C800.104736,572.102661 799.750610,539.674011 796.444214,537.002197 
	C805.118347,537.002197 813.430908,536.633362 821.689209,537.143677 
	C826.470825,537.439148 830.658386,539.144531 829.851501,549.347168 
M817.000061,544.695801 
	C817.511047,540.417114 815.444641,538.445374 811.344299,538.215881 
	C811.344299,543.820007 811.344299,549.302307 811.344299,554.821411 
	C817.257996,553.908020 817.320068,549.857849 817.000061,544.695801 
z"/>
<path fill="#A9A7A5" opacity="1.000000" stroke="none" 
	d="
M743.718872,655.778564 
	C735.243164,662.786804 721.149109,661.643188 715.255371,653.764648 
	C709.865662,646.560059 710.304993,627.060242 721.096924,621.480896 
	C734.800049,614.396423 748.977112,622.745483 749.010986,638.193176 
	C749.024719,644.473022 749.277039,650.791260 743.718872,655.778564 
M730.512817,657.996277 
	C732.340393,656.268250 735.623169,654.637634 735.746521,652.795593 
	C736.312988,644.336609 736.125305,635.815369 735.924133,627.323242 
	C735.857056,624.490540 735.010193,621.919922 731.040710,621.916870 
	C727.124390,621.913879 725.314270,624.440979 725.175781,627.316956 
	C724.766785,635.809082 724.770203,644.348633 725.247864,652.833862 
	C725.348999,654.630737 728.149231,656.275635 730.512817,657.996277 
z"/>
<path fill="#AAA8A6" opacity="1.000000" stroke="none" 
	d="
M637.147034,620.999023 
	C642.118225,620.999084 646.613159,620.968323 651.107483,621.006470 
	C657.525513,621.060974 661.772644,624.287476 661.999817,629.218140 
	C662.429199,638.537537 659.718994,642.291077 651.881592,642.964478 
	C649.439941,643.174255 646.965149,642.997070 644.255737,642.997070 
	C644.255737,648.123474 644.255737,652.866150 644.255737,657.830078 
	C646.305115,657.959167 648.208069,658.079041 650.110962,658.198914 
	C650.102844,658.390198 650.094788,658.581543 650.086670,658.772827 
	C643.352112,658.772827 636.617554,658.772827 629.818542,658.772827 
	C633.022827,656.139587 633.018311,623.937134 629.413696,620.999023 
	C632.137268,620.999023 634.403870,620.999023 637.147034,620.999023 
M647.315796,623.067261 
	C646.317017,622.766907 645.318176,622.466492 644.259216,622.148010 
	C644.259216,628.828613 644.259216,635.170349 644.259216,641.578979 
	C650.582153,639.763306 652.296204,630.916199 647.315796,623.067261 
z"/>
<path fill="#AAA8A6" opacity="1.000000" stroke="none" 
	d="
M553.106201,575.000977 
	C550.170776,575.000977 547.717896,575.000977 546.081787,575.000977 
	C546.776062,572.414490 547.853699,570.146240 547.916504,567.850220 
	C548.134583,559.869690 548.129761,551.875977 547.914612,543.895264 
	C547.857178,541.763855 546.747314,539.660706 546.062134,537.347168 
	C554.922607,537.347168 564.607239,537.347168 574.648315,537.347168 
	C574.648315,540.710693 574.648315,544.207153 574.648315,549.326843 
	C570.344482,544.011536 568.227905,536.943909 560.229492,539.428894 
	C560.229492,544.412231 560.229492,549.515137 560.229492,554.618042 
	C560.563354,554.913513 560.897156,555.208984 561.231018,555.504395 
	C563.893433,552.628601 566.555908,549.752808 569.740662,546.312866 
	C569.740662,552.695129 569.740662,558.114929 569.740662,564.974609 
	C566.624451,561.644592 564.154236,559.004822 561.684021,556.365112 
	C561.247375,556.630310 560.810669,556.895508 560.374023,557.160645 
	C560.374023,562.330139 560.374023,567.499573 560.374023,572.654846 
	C569.105164,575.124573 571.153076,566.300842 576.187073,562.571289 
	C576.545044,562.817017 576.903015,563.062683 577.260986,563.308350 
	C576.804077,567.110596 576.347168,570.912842 575.855835,575.000977 
	C568.186462,575.000977 560.887573,575.000977 553.106201,575.000977 
z"/>
<path fill="#A9A7A5" opacity="1.000000" stroke="none" 
	d="
M485.712585,639.294800 
	C486.695801,641.150146 487.457367,642.699341 488.377594,644.571411 
	C490.075714,634.152222 489.277191,623.293152 486.493378,621.213074 
	C489.207245,621.213074 491.636841,621.213074 493.342682,621.213074 
	C492.897644,622.762268 492.076416,624.320984 492.059845,625.888123 
	C491.945831,636.684204 491.999878,647.481995 491.999878,658.227295 
	C483.622131,660.277832 482.818512,659.932678 478.906830,652.512207 
	C474.897491,644.906433 470.920837,637.283508 466.419861,629.766541 
	C466.664581,639.408813 464.725342,649.097107 467.037720,658.752258 
	C465.771301,658.752258 463.393921,658.752258 460.967499,658.752258 
	C463.937714,656.318542 463.947968,623.776489 461.022003,621.226685 
	C461.177582,621.167908 461.331329,621.063416 461.489075,621.056946 
	C476.148254,620.461731 476.146881,620.462891 483.042633,634.206299 
	C483.845764,635.806946 484.674225,637.394836 485.712585,639.294800 
z"/>
<path fill="#AAA8A6" opacity="1.000000" stroke="none" 
	d="
M911.425903,631.951172 
	C910.251831,630.753784 909.432129,629.594421 908.743164,628.361938 
	C906.534668,624.411133 903.563599,621.986755 898.356812,623.310425 
	C898.356812,628.312500 898.356812,633.498291 898.356812,638.684082 
	C898.731689,638.971191 899.106628,639.258301 899.481506,639.545410 
	C901.738037,636.760254 903.994507,633.975098 906.537720,630.836121 
	C906.537720,636.615234 906.537720,642.104980 906.537720,648.098572 
	C904.096069,645.455750 901.752808,642.919495 899.409607,640.383240 
	C899.017517,640.675842 898.625488,640.968506 898.233398,641.261108 
	C898.233398,646.347290 898.233398,651.433411 898.233398,656.599915 
	C906.724731,658.884705 908.980713,651.319702 913.697998,645.746521 
	C913.697998,650.962402 913.697998,654.676819 913.697998,658.665222 
	C903.545105,658.665222 893.383423,658.665222 884.229858,658.665222 
	C884.853577,656.206482 885.865234,653.957703 885.921204,651.685303 
	C886.122131,643.523926 886.101929,635.352417 885.920532,627.190125 
	C885.880493,625.390381 884.836121,623.612854 883.985535,620.999634 
	C886.083862,620.999634 889.056885,620.999634 892.029907,620.999634 
	C897.362976,620.999634 902.710205,621.237488 908.024597,620.922791 
	C912.118896,620.680359 913.587769,622.285095 912.986084,626.129578 
	C912.680237,628.083496 912.226807,630.014343 911.425903,631.951172 
z"/>
<path fill="#A9A7A5" opacity="1.000000" stroke="none" 
	d="
M969.998657,633.742188 
	C969.297424,620.403748 978.514648,618.860962 989.455872,620.240356 
	C991.393433,620.484619 993.298401,620.987305 995.634033,621.453613 
	C995.634033,624.660095 995.634033,628.197815 995.634033,633.046387 
	C993.996033,631.363098 992.958191,630.452698 992.107239,629.392334 
	C989.592285,626.258606 987.805359,621.904724 982.979675,622.160522 
	C980.952698,622.267944 978.023376,623.653015 977.257202,625.281738 
	C975.837219,628.300659 978.262756,630.690063 980.941162,631.868103 
	C984.030762,633.227295 987.406494,633.921265 990.617310,635.022827 
	C996.940674,637.192261 999.174927,641.906250 997.985535,650.352478 
	C997.189026,656.008728 992.754883,659.880493 986.747070,659.982178 
	C981.398621,660.072754 976.047424,660.001160 970.347778,660.001160 
	C970.347778,655.343872 970.347778,650.839966 970.347778,645.307739 
	C973.391541,648.921021 975.653992,652.210938 978.539185,654.809448 
	C980.322998,656.415955 983.067444,657.781555 985.356140,657.744324 
	C987.236511,657.713745 990.257141,655.722961 990.622864,654.112793 
	C991.019287,652.367737 989.447266,649.315247 987.801941,648.161133 
	C985.089172,646.258179 981.726807,644.998718 978.459045,644.232788 
	C972.927917,642.936340 970.663208,639.336487 969.998657,633.742188 
z"/>
<path fill="#A9A7A5" opacity="1.000000" stroke="none" 
	d="
M632.021790,550.555054 
	C631.563660,536.729736 640.195618,535.129822 650.869812,536.086792 
	C653.104797,536.287170 655.294739,536.989136 657.763000,537.514771 
	C657.763000,540.788513 657.763000,544.204590 657.763000,547.620728 
	C657.426514,547.872742 657.090027,548.124756 656.753601,548.376770 
	C655.212891,546.308716 653.644104,544.260864 652.137451,542.168335 
	C649.181335,538.062378 644.245056,536.682800 641.229614,539.157349 
	C637.906006,541.884766 638.065857,544.947510 641.995117,546.939636 
	C644.714722,548.318481 647.756653,549.082458 650.686646,550.020996 
	C656.256042,551.805054 660.197327,555.193909 660.906128,561.215820 
	C661.525818,566.481628 659.793701,571.806519 655.153137,573.882935 
	C650.782227,575.838684 645.338440,575.533691 640.342896,575.898438 
	C637.889404,576.077515 635.382263,575.520874 631.998169,575.215942 
	C631.998169,573.709106 631.998169,571.498596 631.998169,569.288086 
	C631.998169,566.985413 631.998169,564.682678 631.998169,562.380005 
	C632.360107,562.169373 632.722107,561.958740 633.084045,561.748047 
	C634.396179,563.525879 635.630554,565.367920 637.036743,567.067871 
	C639.846008,570.463867 642.374878,574.602173 647.638062,573.888672 
	C649.483582,573.638550 652.559326,572.212646 652.623596,571.172119 
	C652.764709,568.890076 651.970337,565.854492 650.392578,564.343018 
	C648.538940,562.567322 645.511475,561.881287 642.884521,561.077087 
	C637.576721,559.452209 633.527710,556.628967 632.021790,550.555054 
z"/>
<path fill="#A9A7A5" opacity="1.000000" stroke="none" 
	d="
M484.218170,539.727417 
	C478.848450,536.265137 475.585876,537.512878 473.790344,543.723938 
	C471.384644,552.045776 471.404755,560.413147 474.008331,568.741699 
	C475.921722,574.862366 481.401825,576.645203 485.516266,571.091553 
	C487.153809,568.881165 488.460388,566.427856 489.970032,564.119324 
	C490.528015,563.266113 491.236450,562.511230 492.639252,560.757751 
	C492.842285,563.188843 492.982056,564.144287 492.990997,565.100952 
	C493.020325,568.231750 493.001984,571.363098 493.001984,574.802490 
	C482.147675,575.463989 470.380249,580.250610 462.924835,568.900696 
	C457.850311,561.175476 458.180420,551.700500 463.098999,543.687927 
	C470.116974,532.255249 481.303589,536.252014 491.623169,537.087463 
	C492.079071,541.169067 492.505096,544.983032 492.931152,548.796997 
	C492.476349,549.065613 492.021545,549.334229 491.566772,549.602844 
	C489.202271,546.399719 486.837799,543.196655 484.218170,539.727417 
z"/>
<path fill="#A9A7A5" opacity="1.000000" stroke="none" 
	d="
M550.006714,643.997375 
	C552.889771,636.191528 555.711304,628.778809 558.554504,621.309204 
	C562.715027,620.153442 565.131531,621.132996 566.630676,625.940247 
	C569.621033,635.529236 573.450806,644.858582 577.017273,654.263550 
	C577.632263,655.885315 578.659058,657.350891 579.437134,658.781006 
	C574.412537,658.781006 568.716431,658.781006 563.145691,658.781006 
	C565.057617,657.039978 565.057617,657.039978 561.543762,647.298584 
	C553.007446,646.543335 553.007446,646.543335 548.243774,657.643005 
	C549.286560,657.872437 550.295410,658.094360 551.304321,658.316345 
	C551.269409,658.477234 551.234497,658.638062 551.199585,658.798950 
	C548.474915,658.798950 545.750244,658.798950 543.960815,658.798950 
	C545.843628,654.265747 547.894409,649.328125 550.006714,643.997375 
M556.616943,635.111084 
	C555.505920,638.302490 554.394958,641.493896 553.231262,644.836914 
	C556.065918,644.836914 558.328491,644.836914 560.863037,644.836914 
	C559.660767,641.423706 558.538208,638.236816 556.616943,635.111084 
z"/>
<path fill="#A9A7A5" opacity="1.000000" stroke="none" 
	d="
M735.682129,542.256165 
	C739.940186,553.472168 743.953857,564.364075 747.835876,574.898804 
	C743.385254,574.898804 737.625793,574.898804 732.068054,574.898804 
	C735.987732,570.572754 730.297791,567.287537 731.050293,563.447021 
	C721.963989,562.260559 721.963989,562.260559 717.302917,573.601562 
	C718.343201,573.873962 719.358948,574.139954 720.374634,574.405945 
	C720.327515,574.575195 720.280334,574.744446 720.233154,574.913696 
	C717.420227,574.913696 714.607300,574.913696 713.189758,574.913696 
	C717.879272,562.712830 722.734192,550.081604 727.652039,537.286499 
	C731.611938,536.184448 734.856628,536.710876 735.682129,542.256165 
M723.995972,560.991577 
	C725.859009,560.991577 727.721985,560.991577 729.925171,560.991577 
	C728.598022,557.223694 727.477173,554.041504 726.356323,550.859253 
	C725.926208,550.895630 725.496094,550.932068 725.065979,550.968506 
	C724.439941,554.298828 723.813965,557.629211 723.995972,560.991577 
z"/>
<path fill="#AAA8A6" opacity="1.000000" stroke="none" 
	d="
M815.762695,656.983398 
	C821.034302,656.950073 823.317078,653.521301 825.546692,649.979614 
	C826.484680,648.489685 827.550110,647.079956 828.557617,645.633789 
	C829.024292,645.800171 829.491028,645.966614 829.957703,646.133057 
	C829.957703,649.353210 830.224060,652.607300 829.819397,655.775818 
	C829.669189,656.951599 827.968811,658.825378 826.935486,658.852417 
	C817.709534,659.093628 808.474670,658.992981 800.173767,658.992981 
	C800.861938,656.238647 801.866028,653.970459 801.922363,651.678894 
	C802.122803,643.526001 802.102051,635.362976 801.922302,627.209106 
	C801.882263,625.393250 800.853149,623.599121 800.185913,621.500977 
	C806.062317,621.500977 812.920593,621.500977 819.778809,621.500977 
	C819.842834,621.848999 819.906799,622.197021 819.970825,622.544983 
	C818.250854,622.759033 816.530945,622.973083 814.000732,623.288025 
	C814.000732,632.010498 813.908691,640.907288 814.061646,649.799866 
	C814.102844,652.197205 814.887512,654.581848 815.762695,656.983398 
z"/>
<path fill="#AAA8A6" opacity="1.000000" stroke="none" 
	d="
M417.999695,647.998047 
	C417.999695,612.208984 417.986847,576.919495 418.041290,541.630127 
	C418.043762,540.028076 418.653687,538.426941 418.980652,536.825317 
	C419.583191,536.932800 420.185730,537.040344 420.788269,537.147827 
	C420.858826,538.604370 420.990601,540.060913 420.990997,541.517456 
	C421.002167,581.134888 421.011597,620.752258 420.958069,660.369629 
	C420.955872,661.987183 420.339447,663.603943 420.009186,665.221130 
	C419.339355,665.098145 418.669525,664.975098 417.999695,664.852112 
	C417.999695,659.400635 417.999695,653.949158 417.999695,647.998047 
z"/>
<path fill="#000000" opacity="1.000000" stroke="none" 
	d="
M817.000244,545.141357 
	C817.320068,549.857849 817.257996,553.908020 811.344299,554.821411 
	C811.344299,549.302307 811.344299,543.820007 811.344299,538.215881 
	C815.444641,538.445374 817.511047,540.417114 817.000244,545.141357 
z"/>
<path fill="#000000" opacity="1.000000" stroke="none" 
	d="
M730.109375,657.993408 
	C728.149231,656.275635 725.348999,654.630737 725.247864,652.833862 
	C724.770203,644.348633 724.766785,635.809082 725.175781,627.316956 
	C725.314270,624.440979 727.124390,621.913879 731.040710,621.916870 
	C735.010193,621.919922 735.857056,624.490540 735.924133,627.323242 
	C736.125305,635.815369 736.312988,644.336609 735.746521,652.795593 
	C735.623169,654.637634 732.340393,656.268250 730.109375,657.993408 
z"/>
<path fill="#000000" opacity="1.000000" stroke="none" 
	d="
M647.656372,623.306702 
	C652.296204,630.916199 650.582153,639.763306 644.259216,641.578979 
	C644.259216,635.170349 644.259216,628.828613 644.259216,622.148010 
	C645.318176,622.466492 646.317017,622.766907 647.656372,623.306702 
z"/>
<path fill="#000000" opacity="1.000000" stroke="none" 
	d="
M557.016296,635.080505 
	C558.538208,638.236816 559.660767,641.423706 560.863037,644.836914 
	C558.328491,644.836914 556.065918,644.836914 553.231262,644.836914 
	C554.394958,641.493896 555.505920,638.302490 557.016296,635.080505 
z"/>
<path fill="#000000" opacity="1.000000" stroke="none" 
	d="
M723.591919,560.975586 
	C723.813965,557.629211 724.439941,554.298828 725.065979,550.968506 
	C725.496094,550.932068 725.926208,550.895630 726.356323,550.859253 
	C727.477173,554.041504 728.598022,557.223694 729.925171,560.991577 
	C727.721985,560.991577 725.859009,560.991577 723.591919,560.975586 
z"/>
</svg>