<svg version="1.1" id="Layer_1" xmlns="http://www.w3.org/2000/svg" xmlns:xlink="http://www.w3.org/1999/xlink" x="0px" y="0px"
	 width="100%" viewBox="0 0 128 128" enable-background="new 0 0 128 128" xml:space="preserve">
<path fill="#4C6971" opacity="1.000000" stroke="none" 
	d="
M78.000000,129.000000 
	C52.000000,129.000000 26.500000,129.000000 1.000000,129.000000 
	C1.000000,86.333336 1.000000,43.666668 1.000000,1.000000 
	C43.666668,1.000000 86.333336,1.000000 129.000000,1.000000 
	C129.000000,43.666668 129.000000,86.333336 129.000000,129.000000 
	C112.166664,129.000000 95.333336,129.000000 78.000000,129.000000 
M101.000008,110.312866 
	C101.000008,78.279922 101.000008,46.246971 101.000008,14.320637 
	C98.043808,15.085512 98.007683,15.085497 98.005981,19.185795 
	C97.994705,46.441296 98.000137,73.696800 98.000137,100.952309 
	C97.469521,101.003731 96.938904,101.055153 96.408295,101.106567 
	C95.911949,99.660492 95.326767,98.238167 94.932892,96.764694 
	C90.606758,80.580643 86.195724,64.417915 82.051811,48.187077 
	C79.798172,39.360046 77.845055,30.446182 76.103073,21.503952 
	C75.466492,18.236141 73.957664,16.424801 70.872429,17.131647 
	C68.042160,17.780075 67.446678,19.952074 68.755882,22.780506 
	C69.334648,24.030872 68.992805,25.727993 68.993301,27.222326 
	C69.002373,54.548935 68.999947,81.875542 68.999954,109.202156 
	C68.999962,111.007607 68.999954,112.813049 68.999954,114.602150 
	C73.925438,114.753670 74.052063,114.751640 73.977127,110.068481 
	C73.700882,92.802834 73.276138,75.539474 73.023422,58.273552 
	C72.890991,49.225731 73.000046,40.174377 73.000046,31.124620 
	C74.959442,37.427673 75.974976,43.841118 77.601761,50.095581 
	C82.965416,70.717110 88.486275,91.298820 94.172508,111.833313 
	C94.623337,113.461372 96.670753,115.555672 98.218399,115.782784 
	C101.453438,116.257523 100.921349,113.311089 101.000008,110.312866 
M27.999941,59.497448 
	C28.999285,72.945786 30.126892,86.386276 30.949768,99.845398 
	C31.441732,107.892059 35.117947,113.273727 42.650681,116.235756 
	C49.752319,119.028267 59.410774,114.574821 61.136467,106.225319 
	C58.062229,107.662788 55.739586,108.713364 53.447662,109.827148 
	C46.570217,113.169357 37.493053,109.964424 36.261429,103.336479 
	C34.829502,95.630646 33.575737,87.830521 33.112381,80.019836 
	C32.367283,67.459999 32.136280,54.858303 32.111984,42.273472 
	C32.103947,38.111961 32.959492,33.809074 34.206394,29.816359 
	C36.269711,23.209433 43.361027,19.981783 49.964432,22.035580 
	C51.439968,22.494503 52.975594,22.760225 54.685440,23.162378 
	C55.673546,18.070761 52.598579,16.638641 49.279503,16.087118 
	C39.834862,14.517724 30.482449,20.379234 29.213579,29.805220 
	C27.941801,39.252846 28.335957,48.924725 27.999941,59.497448 
z"/>
<path fill="#F4F3F0" opacity="1.000000" stroke="none" 
	d="
M100.999893,110.764984 
	C100.921349,113.311089 101.453438,116.257523 98.218399,115.782784 
	C96.670753,115.555672 94.623337,113.461372 94.172508,111.833313 
	C88.486275,91.298820 82.965416,70.717110 77.601761,50.095581 
	C75.974976,43.841118 74.959442,37.427673 73.000046,31.124620 
	C73.000046,40.174377 72.890991,49.225731 73.023422,58.273552 
	C73.276138,75.539474 73.700882,92.802834 73.977127,110.068481 
	C74.052063,114.751640 73.925438,114.753670 68.999954,114.602150 
	C68.999954,112.813049 68.999962,111.007607 68.999954,109.202156 
	C68.999947,81.875542 69.002373,54.548935 68.993301,27.222326 
	C68.992805,25.727993 69.334648,24.030872 68.755882,22.780506 
	C67.446678,19.952074 68.042160,17.780075 70.872429,17.131647 
	C73.957664,16.424801 75.466492,18.236141 76.103073,21.503952 
	C77.845055,30.446182 79.798172,39.360046 82.051811,48.187077 
	C86.195724,64.417915 90.606758,80.580643 94.932892,96.764694 
	C95.326767,98.238167 95.911949,99.660492 96.408295,101.106567 
	C96.938904,101.055153 97.469521,101.003731 98.000137,100.952309 
	C98.000137,73.696800 97.994705,46.441296 98.005981,19.185795 
	C98.007683,15.085497 98.043808,15.085512 101.000008,14.320637 
	C101.000008,46.246971 101.000008,78.279922 100.999893,110.764984 
z"/>
<path fill="#F4F3F0" opacity="1.000000" stroke="none" 
	d="
M27.999943,58.997879 
	C28.335957,48.924725 27.941801,39.252846 29.213579,29.805220 
	C30.482449,20.379234 39.834862,14.517724 49.279503,16.087118 
	C52.598579,16.638641 55.673546,18.070761 54.685440,23.162378 
	C52.975594,22.760225 51.439968,22.494503 49.964432,22.035580 
	C43.361027,19.981783 36.269711,23.209433 34.206394,29.816359 
	C32.959492,33.809074 32.103947,38.111961 32.111984,42.273472 
	C32.136280,54.858303 32.367283,67.459999 33.112381,80.019836 
	C33.575737,87.830521 34.829502,95.630646 36.261429,103.336479 
	C37.493053,109.964424 46.570217,113.169357 53.447662,109.827148 
	C55.739586,108.713364 58.062229,107.662788 61.136467,106.225319 
	C59.410774,114.574821 49.752319,119.028267 42.650681,116.235756 
	C35.117947,113.273727 31.441732,107.892059 30.949768,99.845398 
	C30.126892,86.386276 28.999285,72.945786 27.999943,58.997879 
z"/>
</svg>